<svg xmlns="http://www.w3.org/2000/svg" width="176.95" height="79.895" viewBox="0 0 176.95 79.895">
  <g>
    <g>
      <path fill="rgb(17,125,72)" fill-rule="evenodd" d="M1.60617828 78.63598633h.20092774c.89231872 0 1.51694488-.59887695 1.51694488-1.46362305v-.94067383c0-1.41015625-.80371856-1.83520508-1.69541168-1.83520508-1.05643463 0-1.45766449.54589844-1.45766449 1.00097657v.32641601H.2077942c.14913177-.18945312.55036926-.47021484 1.27171326-.47021484.59529113 0 .86299133.1743164.86299133.75024414v.0534668h-.34944153C.52041626 76.05737305 0 76.61157227 0 77.33911133c0 .75073242.65395355 1.296875 1.60617828 1.296875zm.38687897-1.85058594h.3569336v.39453125c0 .41674805-.2084198.62939453-.63960267.62939453-.4392929 0-.6920166-.18896484-.6920166-.5078125 0-.33422851.21590424-.51611328.97468567-.51611328z"/>
      <path fill="rgb(17,125,72)" fill-rule="evenodd" d="M7.37911343 78.5676091c-.446784 0-.728832-.28827274-.728832-.66754546v-1.62272728c0-.69045454-.297648-.99336363-.810576-.99336363-.431184 0-.728832.33345454-.728832.91763636v2.366h-.297024c-.42432 0-.699504-.28827273-.699504-.66754545v-1.76654546c0-.86481818.557856-1.75190909 1.807104-1.75190909.944736 0 1.72536.64463636 1.72536 1.80472727v2.38127273h-.267696z"/>
      <path fill="rgb(17,125,72)" fill-rule="evenodd" d="M13.39790543 73.69917273c0 .24245454-.17784.53836363-.579696.53836363h-1.568736v1.28927273h1.836432v.31054546c0 .3340909-.260208.5160909-.490464.5160909h-1.309152v2.2139091h-.423696c-.371904 0-.595296-.19663637-.595296-.60645455v-3.78445455c0-.64463636.253344-.80372727.848016-.80372727h2.282592v.32645455z"/>
      <path fill="rgb(17,125,72)" fill-rule="evenodd" d="M19.34905583 78.5676091c-.386256 0-.654576-.22018183-.654576-.6898182 0-.65990908-.111696-2.56327272-.192816-3.07936363-.067392.16736364-.163488.37927273-.237744.61472728l-.71448 2.22918181c-.11856.37163637-.27456.721-.416208.92527273h-.275184c-.334464 0-.632112-.26536364-.818064-.82663636l-.728832-2.19163637c-.088608-.26536363-.208416-.57590909-.282672-.75854545-.133536.74327273-.222768 2.82927273-.222768 3.77681818h-.357552c-.378768 0-.638976-.25072727-.638976-.68981818 0-1.16072727.222768-3.4739091.40872-4.50481818h.215904c.706368 0 1.204944.32645454 1.39776.87945454l.706368 2.03254546c.156624.43972727.245856.75090909.29016.98572727.03744-.19727273.089856-.35636364.141648-.53072727l.587184-1.8429091c.260208-.826.587184-1.34972727.7956-1.5240909h.119184c.565344 0 .937248.364 1.018992 1.07672727.09672.819.245232 3.07872727.245232 4.1179091h-.38688z"/>
      <path fill="rgb(17,125,72)" fill-rule="evenodd" d="M24.37213103 78.5676091c-.393744 0-.824928-.1209091-1.45704-1.37263637l-.92976-1.8429091c-.141648-.28827272-.25272-.48490908-.341952-.60645454v3.822h-.401856c-.297024 0-.617136-.22718182-.617136-.68218182v-4.51245454h.506064c.668928 0 1.100112.364 1.442064 1.06145454l.892944 1.82c.103584.21254546.222768.52309091.297024.69809091v-3.57954545h.453648c.260208 0 .557856.26536363.557856.59881818v4.59581818h-.401856z"/>
      <path fill="rgb(17,125,72)" fill-rule="evenodd" d="M28.71069336 78.06713867c.0374298.25024414.26019287.50024414.68389893.50024414h.41682434c-.20092774-1.63793945-.9671936-3.87548828-1.42770386-4.71655273-.14164734-.25073242-.4168396-.47802735-.82556152-.47802735h-.41619874c-.78125.88769532-1.73347473 3.9428711-1.73347473 4.69433594 0 .31835938.13415528.50024414.46862793.50024414h.3943634c.07424927-.43969726.16348267-.88696289.2677002-1.32739258h2.03048706c.0518036.22021485.09609986.4855957.14103699.82714844zm-1.94876099-1.65356445c.17160034-.71972656.49108887-1.54638672.78874207-2.08544922.26768493.4855957.61712646 1.35791016.7881012 2.08544922h-1.57684327z"/>
      <path fill="rgb(17,125,72)" fill-rule="evenodd" d="M32.74377743 78.65835455c-1.353456 0-2.543424-1.00036364-2.543424-2.62372728 0-1.53172727 1.04832-2.75290909 2.788656-2.75290909.9516 0 1.368432.53836364 1.368432 1.0239091v.35636363h-.03744c-.341952-.2959091-.91416-.43972727-1.450176-.43972727-.944736 0-1.621152.7050909-1.621152 1.66790909 0 1.31218182.699504 1.82763636 1.613664 1.82763636.491088 0 .610272-.189.610272-.49254545v-.41681819c0-.3340909-.044928-.60645454-.074256-.75854545h.520416c.282672 0 .520416.2500909.520416.47727273v.83490909c0 .78081818-.42432 1.29627273-1.695408 1.29627273"/>
      <path fill="rgb(17,125,72)" fill-rule="evenodd" d="M37.85520935 78.1430664c.13417053.33398438.41621399.4626465.74319458.4626465.28266907 0 .37190247-.03833009.49108887-.16674806-.0592804-.09179687-.18533325-.2355957-.31201172-.5390625l-.40933228-.97045898c-.12605285-.3034668-.35693359-.61401367-.63150024-.72802734.59468079-.09106446 1.04769897-.67456055 1.04769897-1.38012696 0-.8725586-.66143798-1.49365234-1.6723175-1.49365234h-.56596375c-.37876892 0-1.09324646.10571289-1.30853271.18969726v4.35205079c0 .41748046.2377472.69799804.691391.69799804h.32698058v-2.08520508c.10420227 0 .28329468.03051758.50605774.06811524.2677002.04516601.4829712.08325195.71447754.6520996l.37876892.94067384zm-1.5993042-3.86791992c.11169434-.03051757.3575592-.05273437.45426941-.05273437h.28204346c.4467926 0 .75878906.13623047.75878906.765625 0 .46313477-.34944153.7055664-.76626587.7055664-.27456665 0-.50544739 0-.72883606-.0456543v-1.37280273z"/>
      <path fill="rgb(17,125,72)" fill-rule="evenodd" d="M39.40415955 76.04980469c0 1.5546875 1.04145813 2.60864258 2.32814025 2.60864258 1.55375672 0 2.43859864-1.19018555 2.43859864-2.76831055 0-1.64550781-1.09262085-2.60839844-2.32752991-2.60839844-1.54626465 0-2.43920898 1.15234375-2.43920898 2.7680664zm1.0489502-.15942383c0-1.06152344.54287719-1.69091797 1.29354858-1.69091797.86299133 0 1.37593078.61401367 1.37593078 1.83520508 0 1.14550781-.50544739 1.72143555-1.29356384 1.72143555-.92974854 0-1.37591553-.61401368-1.37591553-1.86572266z"/>
      <path fill="rgb(17,125,72)" fill-rule="evenodd" d="M49.65511343 75.79223636c-.133536-.23545454-.512928-.4250909-1.085136-.4250909-.58032 0-1.093248.47790909-1.093248 1.08436363 0 .74327273.431184 1.25172727 1.1076 1.25172727.572832 0 .914784-.18963636 1.056432-.37927272h.036816v.47027272c0 .49254546-.468624.8489091-1.189968.8489091-1.100736 0-2.052336-.87181819-2.052336-2.04018182 0-1.16772728.7956-2.16872728 2.164032-2.16872728.6396 0 1.093248.39454546 1.093248.88009091v.4779091h-.03744z"/>
      <path fill="rgb(17,125,72)" fill-rule="evenodd" d="M54.1117096 76.45141602c0-1.08422852-.691391-2.07006836-1.89570618-2.07006836-1.2947998 0-1.9861908.98583984-1.9861908 2.2145996 0 1.08422852.691391 2.0625 1.89633179 2.0625 1.2941742 0 1.98556518-.97827148 1.98556518-2.20703124zm-2.84793091 0c0-.67456055.29016113-1.16015625.86236572-1.16015625.65457153 0 .95159912.4855957.95159912 1.30444336 0 .6677246-.28266907 1.15258789-.86174011 1.15258789-.6620636 0-.95222473-.48486329-.95222473-1.296875z"/>
      <path fill="rgb(17,125,72)" fill-rule="evenodd" d="M60.48007823 78.5676091c-.54288 0-.758784-.25772728-.758784-.74327274v-1.57690909c0-.67518182-.297024-.96345454-.73632-.96345454-.401232 0-.676416.28827272-.676416.84954545v2.43409091h-.267696c-.438672 0-.728832-.25772727-.728832-.74327273v-1.57690909c0-.67518182-.304512-.96345454-.743808-.96345454-.38688 0-.67704.31054545-.67704.87181818v2.41181818h-.267072c-.409344 0-.721344-.273-.721344-.74327273v-1.58454545c0-1.1149091.572208-1.85818182 1.78464-1.85818182.520416 0 .929136.24245455 1.219296.637.23088-.37927273.669552-.637 1.153152-.637.921648 0 1.665456.56827273 1.665456 1.729v2.457h-.245232z"/>
      <path fill="rgb(17,125,72)" fill-rule="evenodd" d="M62.70651245 78.0522461c.20155335.3486328.56596375.6064453 1.01150513.6064453 1.16812134 0 1.80709839-.94824218 1.80709839-2.25976562 0-1.03149414-.75816346-2.01733398-1.82145691-2.01733398-1.4133606 0-2.00865174.94042968-2.00865174 2.29736328v2.47290039c0 .43969726.34257508.7055664.69950867.7055664h.31199646V78.0522461zm-.01435852-1.57763673c0-.70507812.3045044-1.19067382.85487366-1.19067382.63960266 0 .95159912.41674804.95159912 1.3803711 0 .65161132-.3344574 1.09179687-.81742859 1.09179687-.59468079 0-.98904419-.46264649-.98904419-1.28149414z"/>
      <path fill="rgb(17,125,72)" fill-rule="evenodd" d="M67.73675537 78.63598633h.20092774c.89231872 0 1.51695251-.59887695 1.51695251-1.46362305v-.94067383c0-1.41015625-.80371094-1.83520508-1.69541931-1.83520508-1.056427 0-1.45765686.54589844-1.45765686 1.00097657v.32641601h.03681946c.1491394-.18945312.55036926-.47021484 1.27171325-.47021484.59529114 0 .86236573.1743164.86236573.75024414v.0534668h-.34881592c-1.472641 0-1.99368286.55419922-1.99368286 1.28173828 0 .75073242.65457153 1.296875 1.60679626 1.296875zm.3868866-1.85058594h.3569336v.39453125c0 .41674805-.2084198.62939453-.63960267.62939453-.43930054 0-.6920166-.18896484-.6920166-.5078125 0-.33422851.2158966-.51611328.97468567-.51611328z"/>
      <path fill="rgb(17,125,72)" fill-rule="evenodd" d="M73.50913583 78.5676091c-.44616 0-.728832-.28827274-.728832-.66754546v-1.62272728c0-.69045454-.297648-.99336363-.810576-.99336363-.43056 0-.728832.33345454-.728832.91763636v2.366h-.297024c-.423696 0-.69888-.28827273-.69888-.66754545v-1.76654546c0-.86481818.557232-1.75190909 1.807104-1.75190909.944112 0 1.72536.64463636 1.72536 1.80472727v2.38127273h-.26832z"/>
      <path fill="rgb(17,125,72)" fill-rule="evenodd" d="M75.18488783 79.895c-.371904 0-.69888-.25072727-.69888-.62936364v-.19790909l.565344-.03754545c.363792-.0229091.490464-.17436364.706368-.7509091-.528528-.81072727-1.286688-2.84390908-1.420224-3.80672727h.52728c.275808 0 .528528.189.58032.47727273.141648.78909091.438672 1.63863637.803088 2.359.3276-.76618182.692016-2.002.781248-2.83627273h.43056c.320112 0 .468624.14381819.468624.47727273 0 .43272727-.69888 2.29854546-.884832 2.73763637-.743184 1.7900909-1.137552 2.20754545-1.858896 2.20754545"/>
    </g>
    <path fill="rgb(130,133,131)" fill-rule="evenodd" d="M4.08803558 39.83251953c.63758088.34594727 1.52529145.52905274 2.61776734.52661133 2.98072815-.00683594 5.25164032-2.0744629 5.24388885-5.4350586C11.94252014 31.74926759 9.77667237 29.99267579 6.7505722 30l-1.75213623.00439453c-1.1151657.00219727-3.18489837.4243164-4.04872894.75073242l.0292511 12.97827149C.98313903 45.42480469 2.00815583 46.00170898 2.8731842 46l1.2285843-.00292969-.01373292-6.16455078zm1.28053284-7.14086914l1.00113678-.0024414c1.63811493-.00366211 2.3682251.71313476 2.372406 2.52075195.0029831 1.52978515-.85906219 2.45800781-2.4518051 2.46166992-.79637147.0024414-1.66199494-.11108399-2.2082367-.27294922l-.0101471-4.49536133c.36415863-.07055664.90979767-.21044922 1.29664612-.21166992z"/>
    <path fill="rgb(130,133,131)" fill-rule="evenodd" d="M21.83685178 37.23656087c-.45083012-.18953863-.96960973-.37845172-1.75782386-.37720064-1.35071777.0031277-2.09284442.79193368-2.0881175 2.7467463l.01595336 7.39138106-.83311989.00250216c-1.35130863.0031277-2.20806312-.7093624-2.21101745-2.04489038l-.01299903-5.91260442c-.00590865-2.57534833 1.27272357-5.0343462 4.46989498-5.04247823 1.86949739-.00500432 2.52535772 1.1140868 2.52772118 2.09243142l.00236346 1.14411273h-.11285525z"/>
    <path fill="rgb(130,133,131)" fill-rule="evenodd" d="M26.1388092 41.84301758l2.01797486-.00488281c4.0810852-.0090332 5.79832458-.75024415 5.79290771-3.03198243C33.94308472 35.83276367 31.5545807 33.99462891 28.98684692 34c-3.5307312.00854492-6.04673767 2.61889648-6.03710937 6.76782227C22.9581604 44.57080078 25.96739197 47.0065918 29.0397644 47c3.39299012-.0078125 4.46783448-1.23242188 4.4642334-2.82226563l-.00241089-.96875-.11428833.00073243c-.98402404.92407226-2.49676513 1.18164062-3.78033447 1.1845703-1.81106567.0041504-3.23477173-.98315429-3.4681549-2.55126952zm-.00601196-2.6040039c.06556702-1.42944337 1.09410095-2.65332032 2.58457947-2.65698243 1.42131042-.00292969 2.3403778.61743164 2.34338379 1.8618164.0018158.87573243-.66223145 1.19970704-3.57402039 1.20654297l-1.37559509.00366211.02165222-.41503906z"/>
    <path fill="rgb(130,133,131)" fill-rule="evenodd" d="M55.1495609 45.96422618c-1.76948058.00431688-2.47485584-.79368895-2.47803607-2.29842946l-.01208488-4.88917328c-.00508837-2.091836-.97696698-2.98296306-2.40743492-2.97987957-1.30898312.00308348-2.20390014.89914412-2.19944782 2.63822947l.0178093 7.54528696-.87265541.0018501c-1.4298319.00308348-2.37754076-.79368896-2.38135704-2.29781277l-.01144883-4.88978998c-.00508837-2.091836-1.00113674-2.98357975-2.43160468-2.97987957-1.2606436.00308348-2.20390014.96883088-2.19944782 2.70853292l.01717325 7.47498351-.87265541.0018501c-1.33315287.00246678-2.353371-.84117462-2.35718728-2.29842947l-.01144883-4.91322446c-.0082686-3.45473621 1.85280263-5.76241613 5.80455777-5.77166658 1.69760735-.00370019 3.03266836.74558659 3.98037722 1.96541312.7486264-1.17665775 2.1771862-1.97959715 3.75330872-1.98206394 3.00595442-.00740036 5.43501492 1.7495692 5.44328352 5.3461457l.01844534 7.61620711-.80014614.0018501z"/>
    <path fill="rgb(130,133,131)" fill-rule="evenodd" d="M58.94970703 30.79614258c.00248718.98876953.82991028 1.81396484 1.84425354 1.81152344 1.014328-.00219727 1.86157227-.83129883 1.85908508-1.81958008-.00247192-.98803711-.85342407-1.79052735-1.86837768-1.78808594-1.0137024.0024414-1.83743286.80859375-1.83496094 1.79614258zm.3100586 11.35180664c.00556945 2.50512695 1.35409545 3.85791015 3.807312 3.85205078 1.34419251-.00317383 1.88571168-.53295898 1.88261414-1.86547852l-.00184631-.66625976-.58979797.0012207c-1.3918457.00366211-1.93458558-.3864746-1.93768311-1.62719726l-.0136261-5.79077149c-.00370788-1.56323242-.85527038-2.29638672-2.27001953-2.29345703l-.89736938.0024414.02041626 8.38745118z"/>
    <path fill="rgb(130,133,131)" fill-rule="evenodd" d="M72.49407146 46.99998013c-3.08162098.0074102-5.5194391-2.05818325-5.52855813-5.75340335l-.0158063-7.22679826.57936177-.00061752c1.78428833-.00432261 2.57338756.77066088 2.57642724 2.25331854l.01094282 4.66039874c.00547141 2.32989062 1.12042365 3.26975108 2.53387182 3.26604598 1.27423112-.00308759 2.17579827-.89972188 2.1709348-3.06473552l-.0158063-7.1323182.5556523-.00185256c1.80738986-.00432261 2.5739955.77066088 2.57703518 2.25393606l.01155076 4.75426128c.00851109 3.95457713-1.81772474 5.98311958-5.45560596 5.99176481"/>
    <path fill="rgb(130,133,131)" fill-rule="evenodd" d="M99.14956107 45.96422787c-1.7701162.0037-2.47612735-.79365153-2.47867153-2.2983211l-.01208488-4.88894274c-.00508836-2.09173737-.97696676-2.98343908-2.40743437-2.97973908-1.30898282.00308334-2.20326359.89848507-2.19944731 2.63748842l.01844533 7.5449312-.8726552.00185c-1.43046762.0037-2.37817626-.79365153-2.3813565-2.29770443l-.01208487-4.88955941c-.00445232-2.09173737-1.00113651-2.98282241-2.43160412-2.97973908-1.26064332.00308334-2.20389964.9687852-2.19944732 2.70840522l.0178093 7.47463106-.87265521.00246668c-1.33315257.00246667-2.35400651-.84113496-2.35718674-2.2983211l-.01144883-4.9129928c-.00890465-3.45457331 1.8528022-5.76214443 5.80519248-5.77139444 1.69697092-.00431668 3.03075953.74493476 3.98037631 1.96470378.74862623-1.17660227 2.17654965-1.97888714 3.75267182-1.98197048 3.00531768-.00678335 5.43437762 1.75010337 5.44328227 5.3465103l.01844533 7.615848-.80014596.00185z"/>
    <path fill="rgb(130,133,131)" fill-rule="evenodd" d="M118.92920618 44.0188227c-.0198979 1.2741621-.66205702 1.97081753-3.42002497 1.97689655l-1.6774523.00425531c-3.83788064.00851063-5.86565637-2.11853766-5.87470087-6.17324246l-.0072356-2.94224457c-.0036178-1.50638058.10793098-3.1975633.28882087-4.47294121.24842213-1.90090883 1.1209144-2.38844605 2.40824749-2.39209346L118.87433624 30l.00241187 1.0656518c.00241186 1.11246024-.66326296 1.66990616-2.1109851 1.67294567l-5.40076932.01337384c-.15858015 1.15866077-.22370051 2.71184979-.22128864 3.70759289l6.06704711-.01398174.00241187 1.1355605c.00241186 1.04255154-.6391443 1.46078795-1.90356468 1.46382746l-4.15986464.01033433.0018089.9264423c.00602966 2.75805032.90384651 3.28814067 3.34043341 3.28206165l1.01057156-.0024316c1.14985677-.00243162 2.32142033-.0978722 3.44715845-.35501464l-.02050085 1.11246024z"/>
    <path fill="rgb(130,133,131)" fill-rule="evenodd" d="M119.94973755 39.70019531c.00802612 3.43457032 2.58023071 6.3071289 5.92095947 6.29980469 4.35244751-.00976563 6.08761597-2.42797852 6.0789795-6.07202148l-.02037049-8.82104493c-.00308228-1.2524414-.66419983-2.109375-2.17036438-2.10693359l-.96418762.0024414.01358032 5.87231446c-.49629211-1.08935547-1.88578796-1.96875-3.1567688-1.96582031-3.69380188.00854492-5.71170044 2.68261718-5.701828 6.79125976zm3.10430908-.61083984c-.00492859-2.02001953 1.02716065-3.55395508 2.62715149-3.55761719 1.69381714-.0036621 3.08454895 1.1303711 3.09194946 4.26391602.0055542 2.2746582-.76789856 3.57666015-2.53269958 3.58081054-1.8117218.00439454-3.18022156-1.6875-3.18640137-4.28710937z"/>
    <path fill="rgb(130,133,131)" fill-rule="evenodd" d="M135.94970703 30.79614258c.00248718.98876953.82991028 1.81396484 1.84425354 1.81152344 1.014328-.00219727 1.861557-.83129883 1.85908508-1.81958008-.00247192-.98803711-.85342407-1.79052735-1.86775207-1.78808594-1.014328.0024414-1.83805847.80859375-1.83558655 1.79614258zm.31066895 11.35180664c.00556945 2.50512695 1.3528595 3.85791015 3.80670166 3.85205078 1.34417724-.00317383 1.88571167-.53295898 1.88259887-1.86547852l-.00183105-.66625976-.58981323.0012207c-1.3918457.00366211-1.93460083-.3864746-1.9376831-1.62719726l-.01361085-5.79077149c-.00372314-1.56323242-.85466003-2.29638672-2.27003479-2.29345703l-.89674377.0024414.02041626 8.38745118z"/>
    <path fill="rgb(130,133,131)" fill-rule="evenodd" d="M143.97439575 39.62304688c.00842285 3.76489257 2.67626953 6.38427734 5.84255982 6.37695312 3.76223755-.00927734 6.1411438-3.0588379 6.13272094-6.82324219-.00842285-3.69555664-2.42346191-6.29296875-5.56628418-6.2849121-1.67462158.0036621-2.7286377 1.00463867-3.34564209 1.91333007l-.00845337-3.64916992C147.0256958 29.69213867 146.19799805 28.9970703 145.00552369 29l-1.05581665.0024414.02468872 10.62060548zm3.09643555-.44897461c-.00479126-1.95214844 1.16177368-3.51245118 2.7220459-3.51611329 1.88171386-.00415039 2.9616394 1.01586915 2.96884155 4.0600586.00421143 2.02246094-1.0925293 3.51245117-2.63052368 3.51611328-1.83477783.00439453-3.0543213-1.1784668-3.06036377-4.0600586z"/>
    <path fill="rgb(130,133,131)" fill-rule="evenodd" d="M161.89713233 45.99997951c-2.53707374.0061545-3.91144694-1.37430053-3.91744334-3.93149655l-.02998196-13.06601.86827766-.0024618c1.53147869-.0036927 2.19647864.9090201 2.19947683 2.1054555l.02398557 10.65036754c.0029982 1.26659673.64341294 1.66479308 2.08374646 1.66110038l.82270507-.00184635.00179892.68007258c.0029982 1.36014518-.70457614 1.90174145-2.05256521 1.9048187"/>
    <path fill="rgb(130,133,131)" fill-rule="evenodd" d="M169.1394043 40.84301758l2.01678466-.00488281c4.08166504-.0090332 5.79891968-.75097657 5.79351807-3.0324707-.00604248-2.97338868-2.39453125-4.81103516-4.9628601-4.80566407-3.53012086.00854492-6.04614258 2.61889648-6.03710938 6.76782227.00900268 3.80297851 3.01824951 6.23876953 6.0906372 6.23217773 3.39297486-.00854492 4.46783448-1.23242188 4.4642334-2.82226563l-.00241088-.96875-.11489869.00073243c-.98400879.92333984-2.49676513 1.1809082-3.78033447 1.1845703-1.81106567.0041504-3.2341919-.9838867-3.46755981-2.55126952zm-.00601197-2.6040039c.06616211-1.42944337 1.0940857-2.65332032 2.58456421-2.65698243 1.42132569-.0036621 2.33978272.61743164 2.34280396 1.8618164.00119018.87573243-.66226196 1.19921876-3.57403565 1.20654297l-1.375.0029297.02166748-.41430665z"/>
    <path fill="rgb(130,133,131)" fill-rule="evenodd" d="M.94973755 58.77026367C.96079255 63.68554687 4.24492645 67.01000977 8.2934494 67c4.89089203-.01123047 7.66727448-3.7824707 7.65622711-8.76879883C15.93800354 53.0275879 12.49055481 49.99047852 8.60596466 50 3.7383957 50.01123047.9386902 53.6628418.94973755 58.77026367zm3.2988739-.5114746c-.00798798-3.35644532 1.69578552-5.35131837 4.05957794-5.3569336 2.71497345-.00634766 4.33402252 1.93188476 4.34261322 5.79223633.00798035 3.62011718-1.57913208 5.44628906-4.05957031 5.45263672-2.92557526.00683593-4.33403015-1.93188477-4.34262085-5.88793946z"/>
    <path fill="rgb(130,133,131)" fill-rule="evenodd" d="M18.94970703 51.79589844c.00247193.98876953.83053589 1.81420898 1.8448639 1.81176758 1.01434325-.00244141 1.8609619-.83129883 1.85910033-1.81958008C22.65119934 50.80004883 21.8002472 49.99755859 20.78529358 50c-1.01371765.0024414-1.83743286.8083496-1.83558655 1.79589844zm.31066895 11.3515625C19.26594543 65.65234375 20.61386108 67.00537109 23.06707764 67c1.34481811-.00317383 1.88571167-.5336914 1.88261413-1.8659668l-.00123596-.66625976-.58978271.00170898c-1.39186097.00317383-1.93522644-.38696289-1.93769837-1.62695312l-.01423645-5.79125977c-.00370788-1.56274414-.85466003-2.29711914-2.27003479-2.29345703l-.89674377.00170898.02041626 8.38793946z"/>
    <path fill="rgb(130,133,131)" fill-rule="evenodd" d="M30.89653269 66.99997952c-2.53707374.00615428-3.91144694-1.37486621-3.91744333-3.93196966l-.02938233-13.06615242.8688773-.00184628c1.53087905-.00369257 2.195879.90960262 2.1988772 2.1059947l.02398556 10.649982c.0029982 1.26655087.64341294 1.6647328 2.08314682 1.66104023l.82330471-.00184628.00179892.68004797c.0029982 1.36009594-.70457614 1.90105717-2.05316485 1.90474974"/>
    <path fill="rgb(133,191,67)" fill-rule="evenodd" d="M22.93718757 31S1.48663367 21.89678616 13.7202629 2c0 0 19.6076596 6.2540173 11.08128366 28.58838072 0 0-5.06995252-6.34301607-6.83864044-14.49011125 0 0-.04476915 9.71199011 4.97428146 14.90173053"/>
    <path fill="rgb(17,125,72)" fill-rule="evenodd" d="M22.92475617 30.70099273S6.07640898 14.23249633 24.75088925 0c0 0 16.14864858 13.1070055.0728724 31 0 0-2.46716322-7.83910916-1.18448537-16.16262258 0 0-3.55160343 9.12939731-.71452011 15.86361531"/>
    <path fill="rgb(251,219,29)" fill-rule="evenodd" d="M23.36380206 29.99999978S-.31309782 30.0307242 3.33098987 7.03719117c0 0 20.83075572-1.92150453 21.61871716 21.85857336 0 0-7.24325598-3.83133377-12.10328734-10.60299346 0 0 3.77510267 8.911922 10.51738237 11.70722871"/>
    <path fill="rgb(130,133,131)" fill-rule="evenodd" d="M43.08804321 60.83251953c.63757325.34594727 1.52528382.52905274 2.61775208.52661133 2.9813385-.00683594 5.25164795-2.0744629 5.24389648-5.4350586C50.94252014 52.74926759 48.77667237 50.99267579 45.75057983 51l-1.75215149.00439453c-1.11515808.00219727-3.18489074.4243164-4.0487213.75073242l.02984618 12.97827149C39.98313904 66.42480469 41.0081482 67.00170898 41.8737793 67l1.22799682-.00292969-.0137329-6.16455078zm1.28051758-7.14086914l1.00114441-.0024414c1.6387024-.00366211 2.3682251.71313476 2.3730011 2.52075195.00238037 1.52978515-.85966492 2.45800781-2.45300293 2.46166992-.79637146.0024414-1.66079712-.11108399-2.2076416-.27294922l-.01074219-4.49536133c.36476135-.07055664.91099548-.21044922 1.29724121-.21166992z"/>
    <path fill="rgb(130,133,131)" fill-rule="evenodd" d="M59.83745206 57.23656088c-.45138313-.18953864-.97011925-.37845173-1.75826729-.37720065-1.35119532.0031277-2.09266893.79193369-2.0879424 2.7467463l.01654284 7.39138106-.83364085.00250216c-1.35119532.0031277-2.20846879-.7093624-2.21142287-2.04489038l-.01299794-5.91260441c-.00531734-2.57534833 1.27261685-5.03497175 4.470111-5.04247823 1.86934062-.00500432 2.52573677 1.11346127 2.52750922 2.09180588l.00236326 1.14411272-.11225497.00062555z"/>
    <path fill="rgb(130,133,131)" fill-rule="evenodd" d="M73.94967651 60.27856445C73.94244385 56.98242188 71.79759216 53.9909668 68.07305908 54c-4.00079345.0090332-6.13237 3.0102539-6.12332153 6.74438477.00784302 3.2956543 2.1526947 6.26416015 5.87722778 6.25561523 4.0007782-.00976563 6.13175965-2.98779297 6.12271118-6.72143555zm-8.80499267.02001953c-.00482178-2.0517578.88845825-3.52856445 2.65875244-3.53271484 2.02301025-.00488281 2.94584656 1.46826172 2.95187378 3.95776367.00422668 2.02832032-.86553955 3.50610352-2.65873718 3.5102539-2.04592896.00439454-2.94584656-1.46875-2.95188904-3.93530273z"/>
    <path fill="rgb(130,133,131)" fill-rule="evenodd" d="M75.94973755 60.69995117C75.95776367 64.13476563 78.52996826 67.0078125 81.87069702 67c4.35244751-.00976563 6.08761597-2.42797852 6.0789795-6.07226563l-.02037049-8.82128906C87.92622375 50.85375977 87.2651062 49.99707031 85.75894165 50l-.96418762.00195313.01358032 5.87231445c-.49629211-1.08935547-1.88578796-1.96826172-3.1567688-1.96582031-3.69380188.00927734-5.71170044 2.68261718-5.701828 6.7915039zm3.10430908-.61010742c-.00492859-2.02001953 1.02716065-3.55419922 2.62715149-3.5583496 1.69381714-.00366212 3.08454895 1.13037108 3.09257507 4.26416015.0049286 2.2746582-.76852417 3.57666015-2.5333252 3.58081054-1.8117218.00439454-3.18022155-1.68676757-3.18640136-4.28662109z"/>
    <path fill="rgb(130,133,131)" fill-rule="evenodd" d="M96.49407146 66.99998012c-3.08162098.00741056-5.5194391-2.05766347-5.5279502-5.7530591l-.01641423-7.22714156.57936177-.0012351c1.78428833-.00432282 2.57338756.7706975 2.57642724 2.25342558l.01094282 4.66062013c.00547141 2.33000129 1.12042365 3.2699064 2.53387182 3.26620112 1.27423112-.00308773 2.17579827-.89976461 2.1709348-3.0648811l-.0158063-7.13265701.5556523-.0012351c1.80738986-.00432282 2.5739955.77069749 2.57703518 2.25404313l.01155076 4.75448713c.00851109 3.95476497-1.81772474 5.98278624-5.45560596 5.99143188"/>
    <path fill="rgb(130,133,131)" fill-rule="evenodd" d="M114.83583254 58.1852458c-.41234553-.7257028-1.5792594-1.3082314-3.33832063-1.30393002-1.78183613.00430137-3.3545028 1.48335866-3.35030743 3.35691317.00539406 2.2950889 1.3329309 3.86140259 3.41203939 3.85648674 1.75966057-.00430138 2.80910391-.59174582 3.24182698-1.17857578h.11447383l.0029967 1.45263458c.00359604 1.52207101-1.43302058 2.62568003-3.64877846 2.63121036-3.38147307.00737378-6.31164355-2.67852544-6.3200343-6.28553264-.00839075-3.6070072 2.42972205-6.70460911 6.63229015-6.71444082 1.965234-.00430137 3.36169487 1.20991434 3.3652909 2.70924953l.00239736 1.4753704-.1138745.00061449z"/>
    <path fill="rgb(130,133,131)" fill-rule="evenodd" d="M117.91539915 51.89189055c.44785718-.50408472 1.04543596-.88874788 1.56782703-.89000495L120.256025 51l.00719186 2.92268574 4.6603299-.01005655.00326903 1.318037c.00130761.67064638-.61980819 1.53425287-1.98953197 1.53739555l-2.6675289.00628534.01242232 5.054675c.00392284 1.67755877.77802926 2.3218067 2.12356222 2.31866403 1.0715882-.0018856 1.89407628-.14707709 2.41646735-.45945877l.12487697-.00062853.00261522 1.14958972c.00326903 1.31740846-.99182385 2.15838771-2.9355894 2.16278745-3.38933083.00754242-5.03822982-1.7617824-5.04542169-4.7800054l-.01896037-7.76240192c-.00261523-1.26963983.24452348-1.7492117.96567161-2.5656781"/>
    <path fill="rgb(130,133,131)" fill-rule="evenodd" d="M130.53095692 66.99998111c-2.3884212.00544184-4.17736324-1.1657637-4.18052839-2.43310847l-.00253212-1.4064141.12027565-.00060465c.70076392.6215794 2.3668982 1.17120555 3.91149075 1.16757765 1.5920698-.0036279 2.36310002-.44320788 2.36120093-1.36529794-.0018991-.71409074-.46084565-1.05934544-2.7055691-1.35380961-2.75178027-.36278954-4.08114272-1.39734436-4.08557393-3.28687318-.0063303-2.32789951 2.18521865-4.31417221 5.51495508-4.321428 2.94358828-.00665114 4.1533081 1.44269304 4.15647325 2.64050316l.00316515 1.17604274h-.12090868c-.67734182-.64395143-2.17445715-1.14762423-3.7190497-1.14460098-1.97885097.00483719-2.60491738.5822772-2.60238526 1.38887926.00126606.62218405.38804723.87492743 2.60871555 1.21594959 2.70367001.40813823 4.15394114 1.53520438 4.15900538 3.51724453.0063303 2.62720088-1.9199792 4.19807956-5.41873456 4.20594"/>
  </g>
</svg>
